<svg xmlns="http://www.w3.org/2000/svg" viewBox="0 0 1000 225.95"><defs><style>.cls-1{fill:#fff;}</style></defs><g id="Layer_2" data-name="Layer 2"><g id="Layer_1-2" data-name="Layer 1"><path class="cls-1" d="M134,221.11,68.75,146.87H53.26v74.24H0V4.84H109.43c46.8,0,77.79,28.41,77.79,70.69,0,35.51-21.95,61-56.81,68.76l67.78,76.82ZM103.62,102.32c19,0,31.31-10.32,31.31-26.14,0-15.5-12.27-25.82-31.31-25.82H53.26v52Z"/><path class="cls-1" d="M389.28,221.11l-15.17-39.38h-91l-15.17,39.38H210.78L301.16,4.84h54.55l90.38,216.27ZM328.59,64.88l-27.43,71h55.19Z"/><path class="cls-1" d="M688.51,221.11H631.37L595.22,87.48,558.75,221.11H501.93L440.28,4.84h54.55L532.6,141.06,569.72,4.84H620.4l37.12,136.22L695.29,4.84h54.87Z"/><path class="cls-1" d="M998.71,93.61A157.17,157.17,0,0,1,1000,113.3C1000,178.83,953.2,226,888,226c-65.53,0-116.53-49.38-116.53-113C771.46,49.71,822.14,0,887,0c48.1,0,90.38,22.6,105.56,64.88L941.25,79.73c-12.59-24.53-33.25-31-54.23-31-35.18,0-62,27.76-62,64.24,0,36.8,27.43,64.55,63.59,64.55,28.4,0,49.06-14.84,57.13-38.73H879.6V93.61Z"/></g></g></svg>